<svg width="148" height="42" viewBox="0 0 148 42" fill="none" xmlns="http://www.w3.org/2000/svg">
<g clip-path="url(#clip0_324_52496)">
<path d="M24.4381 8.20752H14.6251C13.9486 8.20752 13.3984 8.76268 13.3984 9.44451V16.9062C13.3984 17.588 13.9486 18.1432 14.6251 18.1432H16.465V20.6271L20.3602 18.1432H24.4381C25.1146 18.1432 25.6647 17.588 25.6647 16.9062V9.44451C25.6637 9.11588 25.534 8.80107 25.3041 8.56916C25.0741 8.33725 24.7627 8.20719 24.4381 8.20752ZM20.7582 15.0383H16.465V13.7963H20.7582V15.0383ZM22.5981 12.5544H16.465V11.3124H22.5981V12.5544Z" fill="#855CF8"/>
<path d="M25.4111 26.1609C23.561 26.1609 21.7849 25.8834 20.1272 25.37C19.6092 25.2174 19.032 25.3284 18.6176 25.703L15.3614 28.7556C11.1729 26.7575 7.73912 23.5523 5.60783 19.6255L8.86396 16.559C9.27838 16.1843 9.39679 15.6432 9.23398 15.1576C8.68636 13.6035 8.39034 11.9384 8.39034 10.204C8.39034 9.44081 7.72432 8.81641 6.91028 8.81641H1.73006C0.916028 8.81641 0.25 9.44081 0.25 10.204C0.25 23.2331 11.5133 33.7925 25.4111 33.7925C26.2251 33.7925 26.8911 33.1681 26.8911 32.4049V27.5485C26.8911 26.7853 26.2251 26.1609 25.4111 26.1609Z" fill="#855CF8"/>
<path d="M37.5913 32.415V8.80198H47.8297C49.6284 8.80198 51.1388 9.0441 52.361 9.52836C53.5908 10.0126 54.517 10.6967 55.1397 11.5807C55.7699 12.4646 56.0851 13.5061 56.0851 14.7052C56.0851 15.5738 55.8929 16.3655 55.5086 17.0804C55.132 17.7952 54.6016 18.3948 53.9175 18.879C53.2334 19.3556 52.434 19.6861 51.5193 19.8706V20.1012C52.5339 20.1396 53.4563 20.3971 54.2864 20.8737C55.1166 21.3426 55.7776 21.9921 56.2696 22.8222C56.7615 23.6447 57.0075 24.6132 57.0075 25.7277C57.0075 27.0191 56.6693 28.1682 55.9929 29.1752C55.3241 30.1821 54.371 30.9738 53.1335 31.5503C51.8959 32.1268 50.4201 32.415 48.706 32.415H37.5913ZM44.0018 27.2958H46.9996C48.0757 27.2958 48.8828 27.096 49.4209 26.6963C49.9589 26.2889 50.2279 25.6893 50.2279 24.8976C50.2279 24.3442 50.1011 23.8753 49.8475 23.491C49.5938 23.1066 49.2325 22.8145 48.7637 22.6147C48.3025 22.4148 47.7452 22.3149 47.0918 22.3149H44.0018V27.2958ZM44.0018 18.3487H46.6306C47.1918 18.3487 47.6875 18.2603 48.118 18.0835C48.5484 17.9067 48.8828 17.653 49.1211 17.3225C49.3671 16.9843 49.49 16.5731 49.49 16.0888C49.49 15.3586 49.2287 14.8013 48.706 14.417C48.1833 14.025 47.5223 13.829 46.7229 13.829H44.0018V18.3487ZM59.2789 32.415V8.80198H65.6894V27.2497H75.2361V32.415H59.2789ZM84.238 8.80198V32.415H77.8274V8.80198H84.238ZM107.707 8.80198V32.415H102.357L93.8251 20.009H93.6867V32.415H87.2761V8.80198H92.7182L101.112 21.1619H101.296V8.80198H107.707ZM126.074 16.5961C125.974 16.1887 125.816 15.8313 125.601 15.5239C125.386 15.2087 125.117 14.9435 124.794 14.7283C124.479 14.5054 124.11 14.3401 123.687 14.2325C123.272 14.1172 122.815 14.0596 122.315 14.0596C121.239 14.0596 120.321 14.3171 119.56 14.8321C118.806 15.3471 118.23 16.0888 117.83 17.0573C117.438 18.0258 117.242 19.1942 117.242 20.5624C117.242 21.946 117.43 23.1297 117.807 24.1136C118.184 25.0974 118.745 25.8507 119.49 26.3734C120.236 26.8961 121.162 27.1574 122.269 27.1574C123.245 27.1574 124.056 27.0152 124.702 26.7308C125.355 26.4464 125.843 26.0429 126.166 25.5202C126.489 24.9975 126.65 24.3826 126.65 23.6754L127.757 23.7907H122.361V19.2249H132.83V22.4994C132.83 24.6516 132.373 26.4926 131.458 28.0222C130.551 29.5441 129.298 30.7125 127.7 31.5272C126.109 32.3343 124.283 32.7379 122.223 32.7379C119.925 32.7379 117.907 32.2498 116.17 31.2736C114.433 30.2974 113.076 28.9061 112.1 27.0998C111.131 25.2935 110.647 23.1451 110.647 20.6546C110.647 18.7022 110.943 16.9728 111.535 15.4662C112.134 13.9596 112.965 12.6875 114.025 11.6498C115.086 10.6045 116.312 9.8166 117.703 9.28623C119.095 8.74817 120.586 8.47914 122.177 8.47914C123.576 8.47914 124.875 8.67899 126.074 9.07869C127.281 9.47071 128.345 10.0318 129.268 10.762C130.198 11.4846 130.947 12.3416 131.516 13.3332C132.085 14.3248 132.431 15.4124 132.554 16.5961H126.074Z" fill="#855CF8"/>
</g>
<defs>
<clipPath id="clip0_324_52496">
<rect width="147.5" height="40.156" fill="white" transform="translate(0.25 0.922119)"/>
</clipPath>
</defs>
</svg>
