<svg width="51" height="50" viewBox="0 0 51 50" fill="none" xmlns="http://www.w3.org/2000/svg">
<path d="M25.5 4.16663C17.4375 4.16663 10.9166 10.6875 10.9166 18.75C10.9166 27.4375 20.125 39.4166 23.9166 43.9791C24.75 44.9791 26.2708 44.9791 27.1041 43.9791C30.875 39.4166 40.0833 27.4375 40.0833 18.75C40.0833 10.6875 33.5625 4.16663 25.5 4.16663ZM25.5 23.9583C22.625 23.9583 20.2916 21.625 20.2916 18.75C20.2916 15.875 22.625 13.5416 25.5 13.5416C28.375 13.5416 30.7083 15.875 30.7083 18.75C30.7083 21.625 28.375 23.9583 25.5 23.9583Z" fill="#FB8C02"/>
</svg>
