<svg width="51" height="50" viewBox="0 0 51 50" fill="none" xmlns="http://www.w3.org/2000/svg">
<path d="M47.6876 11.7709L39.7918 3.87502C39.1251 3.20836 38.0001 3.66669 38.0001 4.60419V8.33336H30.7084C30.1251 8.33336 29.6668 8.79169 29.6668 9.37502V15.625C29.6668 16.2084 30.1251 16.6667 30.7084 16.6667H38.0001V20.3959C38.0001 21.3334 39.1251 21.7917 39.7709 21.125L47.6667 13.2292C48.0834 12.8334 48.0834 12.1667 47.6876 11.7709ZM40.5626 31.7917L35.2709 31.1875C34.0001 31.0417 32.7501 31.4792 31.8543 32.375L28.0209 36.2084C22.1251 33.2084 17.2918 28.3959 14.2918 22.4792L18.1459 18.625C19.0418 17.7292 19.4793 16.4792 19.3334 15.2084L18.7293 9.95836C18.4793 7.85419 16.7084 6.27086 14.5834 6.27086H10.9793C8.62509 6.27086 6.66675 8.22919 6.81258 10.5834C7.91675 28.375 22.1459 42.5834 39.9168 43.6875C42.2709 43.8334 44.2292 41.875 44.2292 39.5209V35.9167C44.2501 33.8125 42.6667 32.0417 40.5626 31.7917Z" fill="#FB8C02"/>
</svg>
