<svg width="51" height="50" viewBox="0 0 51 50" fill="none" xmlns="http://www.w3.org/2000/svg">
<path d="M27.3333 10.5209C33.9583 11.3542 39.1458 16.5417 39.9791 23.1667C40.1041 24.2292 41 25 42.0416 25C42.125 25 42.2083 25 42.2916 24.9792C43.4375 24.8334 44.25 23.7917 44.1041 22.6459C43.0416 14.125 36.3541 7.43754 27.8333 6.37504C26.6875 6.25004 25.6458 7.06254 25.5208 8.20837C25.375 9.35421 26.1875 10.3959 27.3333 10.5209ZM28.125 14.9167C27.0208 14.625 25.875 15.2917 25.5833 16.4167C25.2916 17.5417 25.9583 18.6667 27.0833 18.9584C29.2708 19.5209 30.9791 21.2292 31.5625 23.4375C31.8125 24.375 32.6458 25 33.5833 25C33.75 25 33.9375 24.9792 34.1041 24.9375C35.2083 24.6459 35.875 23.5 35.6041 22.3959C34.625 18.7084 31.7708 15.8542 28.125 14.9167ZM40.5625 31.7917L35.2708 31.1875C34 31.0417 32.75 31.4792 31.8541 32.375L28.0208 36.2084C22.125 33.2084 17.2916 28.3959 14.2916 22.4792L18.1458 18.625C19.0416 17.7292 19.4791 16.4792 19.3333 15.2084L18.7291 9.95837C18.4791 7.85421 16.7083 6.27087 14.5833 6.27087H10.9791C8.62496 6.27087 6.66663 8.22921 6.81246 10.5834C7.91663 28.375 22.1458 42.5834 39.9166 43.6875C42.2708 43.8334 44.2291 41.875 44.2291 39.5209V35.9167C44.25 33.8125 42.6666 32.0417 40.5625 31.7917Z" fill="#FB8C02"/>
</svg>
