<svg width="51" height="50" viewBox="0 0 51 50" fill="none" xmlns="http://www.w3.org/2000/svg">
<path d="M42.1667 6.25H27.5834C26.4376 6.25 25.5001 7.1875 25.5001 8.33333V27.0833L31.7501 20.8333H42.1667C43.3126 20.8333 44.2501 19.8958 44.2501 18.75V8.33333C44.2501 7.1875 43.3126 6.25 42.1667 6.25ZM40.5626 31.7917L35.2709 31.1875C34.0001 31.0417 32.7501 31.4792 31.8543 32.375L28.0209 36.2083C22.1251 33.2083 17.2918 28.3958 14.2918 22.4792L18.1459 18.625C19.0418 17.7292 19.4793 16.4792 19.3334 15.2083L18.7293 9.95833C18.4793 7.85417 16.7084 6.27083 14.5834 6.27083H10.9793C8.62509 6.27083 6.66675 8.22917 6.81258 10.5833C7.91675 28.375 22.1459 42.5833 39.9168 43.6875C42.2709 43.8333 44.2292 41.875 44.2292 39.5208V35.9167C44.2501 33.8125 42.6667 32.0417 40.5626 31.7917Z" fill="#FB8C02"/>
</svg>
