<svg width="51" height="50" viewBox="0 0 51 50" fill="none" xmlns="http://www.w3.org/2000/svg">
<path d="M33.8334 2.08337H17.1667C13.7084 2.08337 10.9167 4.87504 10.9167 8.33337V41.6667C10.9167 45.125 13.7084 47.9167 17.1667 47.9167H33.8334C37.2917 47.9167 40.0834 45.125 40.0834 41.6667V8.33337C40.0834 4.87504 37.2917 2.08337 33.8334 2.08337ZM28.6251 43.75H22.3751C21.7917 43.75 21.3334 43.2917 21.3334 42.7084C21.3334 42.125 21.7917 41.6667 22.3751 41.6667H28.6251C29.2084 41.6667 29.6667 42.125 29.6667 42.7084C29.6667 43.2917 29.2084 43.75 28.6251 43.75ZM35.9167 37.5H15.0834V8.33337H35.9167V37.5Z" fill="#FB8C02"/>
<g clip-path="url(#clip0_442_59312)">
<path d="M28.5208 20.25C26.8742 20.25 25.5417 21.5825 25.5417 23.2292C25.5417 23.9496 25.7963 24.6104 26.2242 25.125H23.7758C24.2038 24.6104 24.4583 23.9496 24.4583 23.2292C24.4583 21.5825 23.1258 20.25 21.4792 20.25C19.8325 20.25 18.5 21.5825 18.5 23.2292C18.5 24.8758 19.8325 26.2083 21.4792 26.2083H28.5208C30.1675 26.2083 31.5 24.8758 31.5 23.2292C31.5 21.5825 30.1675 20.25 28.5208 20.25ZM21.4792 25.125C20.4338 25.125 19.5833 24.2746 19.5833 23.2292C19.5833 22.1837 20.4338 21.3333 21.4792 21.3333C22.5246 21.3333 23.375 22.1837 23.375 23.2292C23.375 24.2746 22.5246 25.125 21.4792 25.125ZM28.5208 25.125C27.4754 25.125 26.625 24.2746 26.625 23.2292C26.625 22.1837 27.4754 21.3333 28.5208 21.3333C29.5663 21.3333 30.4167 22.1837 30.4167 23.2292C30.4167 24.2746 29.5663 25.125 28.5208 25.125Z" fill="#FB8C02"/>
</g>
<defs>
<clipPath id="clip0_442_59312">
<rect width="13" height="13" fill="white" transform="translate(18.5 17)"/>
</clipPath>
</defs>
</svg>
